<svg xmlns="http://www.w3.org/2000/svg" width="402" height="117" viewBox="0 0 402 117" role="img" aria-labelledby="title" overflow="hidden">
  <title id="title">السلام عليكم as SVG</title>
  <rect width="100%" height="100%" rx="13" fill="#ffffff"/>
  <path d="M47.79 84.14L32 84.14L32 32L47.79 32ZM36.22 79L36.22 80.47L43.57 80.47L43.57 79L38.63 79L43.57 76.09L43.57 74.59L36.22 74.59L36.22 76.06L41.18 76.06ZM36.22 67.25L36.22 73.13L43.57 73.13L43.57 67.25ZM42.1 71.66L37.69 71.66L37.69 68.72L42.1 68.72ZM36.22 58.44L36.22 64.31L43.57 64.31L43.57 58.44L39.16 58.44L39.16 61.38L40.63 61.38L40.63 59.91L42.1 59.91L42.1 62.84L37.69 62.84L37.69 58.44ZM36.22 55.5L36.22 56.97L43.57 56.97L43.57 51.83L42.1 51.83L42.1 55.5ZM36.22 52.56L36.22 54.03L40.63 54.03L40.63 50.36L43.57 50.36L43.57 48.89L36.22 48.89L36.22 50.36L39.16 50.36L39.16 52.56ZM39.16 45.95L37.69 45.95L37.69 43.75L39.16 43.75ZM36.22 42.28L36.22 47.42L43.57 47.42L43.57 45.95L40.63 45.95L40.63 42.28ZM36.22 39.34L36.22 40.81L43.57 40.81L43.57 39.34L40.26 39.34L40.26 37.14L43.57 37.14L43.57 35.67L36.22 35.67L36.22 37.14L38.79 37.14L38.79 39.34Z M78.63 84.14L62.84 84.14L62.84 32L78.63 32ZM67.07 79L67.07 80.47L74.41 80.47L74.41 79L69.48 79L74.41 76.09L74.41 74.59L67.07 74.59L67.07 76.06L72.02 76.06ZM67.07 67.25L67.07 73.13L74.41 73.13L74.41 67.25ZM72.94 71.66L68.54 71.66L68.54 68.72L72.94 68.72ZM67.07 58.44L67.07 64.31L74.41 64.31L74.41 58.44L70 58.44L70 61.38L71.47 61.38L71.47 59.91L72.94 59.91L72.94 62.84L68.54 62.84L68.54 58.44ZM67.07 55.5L67.07 56.97L74.41 56.97L74.41 51.83L72.94 51.83L72.94 55.5ZM67.07 52.56L67.07 54.03L71.47 54.03L71.47 50.36L74.41 50.36L74.41 48.89L67.07 48.89L67.07 50.36L70 50.36L70 52.56ZM70 45.95L68.54 45.95L68.54 43.75L70 43.75ZM67.07 42.28L67.07 47.42L74.41 47.42L74.41 45.95L71.47 45.95L71.47 42.28ZM67.07 39.34L67.07 40.81L74.41 40.81L74.41 39.34L71.11 39.34L71.11 37.14L74.41 37.14L74.41 35.67L67.07 35.67L67.07 37.14L69.64 37.14L69.64 39.34Z M109.48 84.14L93.69 84.14L93.69 32L109.48 32ZM97.91 79L97.91 80.47L105.25 80.47L105.25 79L100.32 79L105.25 76.09L105.25 74.59L97.91 74.59L97.91 76.06L102.87 76.06ZM97.91 67.25L97.91 73.13L105.25 73.13L105.25 67.25ZM103.79 71.66L99.38 71.66L99.38 68.72L103.79 68.72ZM97.91 58.44L97.91 64.31L105.25 64.31L105.25 58.44L100.85 58.44L100.85 61.38L102.32 61.38L102.32 59.91L103.79 59.91L103.79 62.84L99.38 62.84L99.38 58.44ZM97.91 55.5L97.91 56.97L105.25 56.97L105.25 51.83L103.79 51.83L103.79 55.5ZM97.91 52.56L97.91 54.03L102.32 54.03L102.32 50.36L105.25 50.36L105.25 48.89L97.91 48.89L97.91 50.36L100.85 50.36L100.85 52.56ZM100.85 45.95L99.38 45.95L99.38 43.75L100.85 43.75ZM97.91 42.28L97.91 47.42L105.25 47.42L105.25 45.95L102.32 45.95L102.32 42.28ZM97.91 39.34L97.91 40.81L105.25 40.81L105.25 39.34L101.95 39.34L101.95 37.14L105.25 37.14L105.25 35.67L97.91 35.67L97.91 37.14L100.48 37.14L100.48 39.34Z M140.32 84.14L124.53 84.14L124.53 32L140.32 32ZM128.75 79L128.75 80.47L136.1 80.47L136.1 79L131.16 79L136.1 76.09L136.1 74.59L128.75 74.59L128.75 76.06L133.71 76.06ZM128.75 67.25L128.75 73.13L136.1 73.13L136.1 67.25ZM134.63 71.66L130.22 71.66L130.22 68.72L134.63 68.72ZM128.75 58.44L128.75 64.31L136.1 64.31L136.1 58.44L131.69 58.44L131.69 61.38L133.16 61.38L133.16 59.91L134.63 59.91L134.63 62.84L130.22 62.84L130.22 58.44ZM128.75 55.5L128.75 56.97L136.1 56.97L136.1 51.83L134.63 51.83L134.63 55.5ZM128.75 52.56L128.75 54.03L133.16 54.03L133.16 50.36L136.1 50.36L136.1 48.89L128.75 48.89L128.75 50.36L131.69 50.36L131.69 52.56ZM131.69 45.95L130.22 45.95L130.22 43.75L131.69 43.75ZM128.75 42.28L128.75 47.42L136.1 47.42L136.1 45.95L133.16 45.95L133.16 42.28ZM128.75 39.34L128.75 40.81L136.1 40.81L136.1 39.34L132.79 39.34L132.79 37.14L136.1 37.14L136.1 35.67L128.75 35.67L128.75 37.14L131.32 37.14L131.32 39.34Z M171.16 84.14L155.38 84.14L155.38 32L171.16 32ZM159.6 79L159.6 80.47L166.94 80.47L166.94 79L162.01 79L166.94 76.09L166.94 74.59L159.6 74.59L159.6 76.06L164.55 76.06ZM159.6 67.25L159.6 73.13L166.94 73.13L166.94 67.25ZM165.47 71.66L161.07 71.66L161.07 68.72L165.47 68.72ZM159.6 58.44L159.6 64.31L166.94 64.31L166.94 58.44L162.54 58.44L162.54 61.38L164 61.38L164 59.91L165.47 59.91L165.47 62.84L161.07 62.84L161.07 58.44ZM159.6 55.5L159.6 56.97L166.94 56.97L166.94 51.83L165.47 51.83L165.47 55.5ZM159.6 52.56L159.6 54.03L164 54.03L164 50.36L166.94 50.36L166.94 48.89L159.6 48.89L159.6 50.36L162.54 50.36L162.54 52.56ZM162.54 45.95L161.07 45.95L161.07 43.75L162.54 43.75ZM159.6 42.28L159.6 47.42L166.94 47.42L166.94 45.95L164 45.95L164 42.28ZM159.6 39.34L159.6 40.81L166.94 40.81L166.94 39.34L163.64 39.34L163.64 37.14L166.94 37.14L166.94 35.67L159.6 35.67L159.6 37.14L162.17 37.14L162.17 39.34Z M215.23 84.14L199.44 84.14L199.44 32L215.23 32ZM203.66 79L203.66 80.47L211 80.47L211 79L206.07 79L211 76.09L211 74.59L203.66 74.59L203.66 76.06L208.62 76.06ZM203.66 67.25L203.66 73.13L211 73.13L211 67.25ZM209.54 71.66L205.13 71.66L205.13 68.72L209.54 68.72ZM203.66 58.44L203.66 64.31L211 64.31L211 58.44L206.6 58.44L206.6 61.38L208.07 61.38L208.07 59.91L209.54 59.91L209.54 62.84L205.13 62.84L205.13 58.44ZM203.66 55.5L203.66 56.97L211 56.97L211 51.83L209.54 51.83L209.54 55.5ZM203.66 52.56L203.66 54.03L208.07 54.03L208.07 50.36L211 50.36L211 48.89L203.66 48.89L203.66 50.36L206.6 50.36L206.6 52.56ZM206.6 45.95L205.13 45.95L205.13 43.75L206.6 43.75ZM203.66 42.28L203.66 47.42L211 47.42L211 45.95L208.07 45.95L208.07 42.28ZM203.66 39.34L203.66 40.81L211 40.81L211 39.34L207.7 39.34L207.7 37.14L211 37.14L211 35.67L203.66 35.67L203.66 37.14L206.23 37.14L206.23 39.34Z M246.07 84.14L230.28 84.14L230.28 32L246.07 32ZM234.5 79L234.5 80.47L241.85 80.47L241.85 79L236.91 79L241.85 76.09L241.85 74.59L234.5 74.59L234.5 76.06L239.46 76.06ZM234.5 67.25L234.5 73.13L241.85 73.13L241.85 67.25ZM240.38 71.66L235.97 71.66L235.97 68.72L240.38 68.72ZM234.5 58.44L234.5 64.31L241.85 64.31L241.85 58.44L237.44 58.44L237.44 61.38L238.91 61.38L238.91 59.91L240.38 59.91L240.38 62.84L235.97 62.84L235.97 58.44ZM234.5 55.5L234.5 56.97L241.85 56.97L241.85 51.83L240.38 51.83L240.38 55.5ZM234.5 52.56L234.5 54.03L238.91 54.03L238.91 50.36L241.85 50.36L241.85 48.89L234.5 48.89L234.5 50.36L237.44 50.36L237.44 52.56ZM237.44 45.95L235.97 45.95L235.97 43.75L237.44 43.75ZM234.5 42.28L234.5 47.42L241.85 47.42L241.85 45.95L238.91 45.95L238.91 42.28ZM234.5 39.34L234.5 40.81L241.85 40.81L241.85 39.34L238.54 39.34L238.54 37.14L241.85 37.14L241.85 35.67L234.5 35.67L234.5 37.14L237.07 37.14L237.07 39.34Z M276.91 84.14L261.13 84.14L261.13 32L276.91 32ZM265.35 79L265.35 80.47L272.69 80.47L272.69 79L267.76 79L272.69 76.09L272.69 74.59L265.35 74.59L265.35 76.06L270.3 76.06ZM265.35 67.25L265.35 73.13L272.69 73.13L272.69 67.25ZM271.22 71.66L266.82 71.66L266.82 68.72L271.22 68.72ZM265.35 58.44L265.35 64.31L272.69 64.31L272.69 58.44L268.29 58.44L268.29 61.38L269.75 61.38L269.75 59.91L271.22 59.91L271.22 62.84L266.82 62.84L266.82 58.44ZM265.35 55.5L265.35 56.97L272.69 56.97L272.69 51.83L271.22 51.83L271.22 55.5ZM265.35 52.56L265.35 54.03L269.75 54.03L269.75 50.36L272.69 50.36L272.69 48.89L265.35 48.89L265.35 50.36L268.29 50.36L268.29 52.56ZM268.29 45.95L266.82 45.95L266.82 43.75L268.29 43.75ZM265.35 42.28L265.35 47.42L272.69 47.42L272.69 45.95L269.75 45.95L269.75 42.28ZM265.35 39.34L265.35 40.81L272.69 40.81L272.69 39.34L269.39 39.34L269.39 37.14L272.69 37.14L272.69 35.67L265.35 35.67L265.35 37.14L267.92 37.14L267.92 39.34Z M307.76 84.14L291.97 84.14L291.97 32L307.76 32ZM296.19 79L296.19 80.47L303.54 80.47L303.54 79L298.6 79L303.54 76.09L303.54 74.59L296.19 74.59L296.19 76.06L301.15 76.06ZM296.19 67.25L296.19 73.13L303.54 73.13L303.54 67.25ZM302.07 71.66L297.66 71.66L297.66 68.72L302.07 68.72ZM296.19 58.44L296.19 64.31L303.54 64.31L303.54 58.44L299.13 58.44L299.13 61.38L300.6 61.38L300.6 59.91L302.07 59.91L302.07 62.84L297.66 62.84L297.66 58.44ZM296.19 55.5L296.19 56.97L303.54 56.97L303.54 51.83L302.07 51.83L302.07 55.5ZM296.19 52.56L296.19 54.03L300.6 54.03L300.6 50.36L303.54 50.36L303.54 48.89L296.19 48.89L296.19 50.36L299.13 50.36L299.13 52.56ZM299.13 45.95L297.66 45.95L297.66 43.75L299.13 43.75ZM296.19 42.28L296.19 47.42L303.54 47.42L303.54 45.95L300.6 45.95L300.6 42.28ZM296.19 39.34L296.19 40.81L303.54 40.81L303.54 39.34L300.23 39.34L300.23 37.14L303.54 37.14L303.54 35.67L296.19 35.67L296.19 37.14L298.76 37.14L298.76 39.34Z M338.6 84.14L322.81 84.14L322.81 32L338.6 32ZM327.04 79L327.04 80.47L334.38 80.47L334.38 79L329.44 79L334.38 76.09L334.38 74.59L327.04 74.59L327.04 76.06L331.99 76.06ZM327.04 67.25L327.04 73.13L334.38 73.13L334.38 67.25ZM332.91 71.66L328.5 71.66L328.5 68.72L332.91 68.72ZM327.04 58.44L327.04 64.31L334.38 64.31L334.38 58.44L329.97 58.44L329.97 61.38L331.44 61.38L331.44 59.91L332.91 59.91L332.91 62.84L328.5 62.84L328.5 58.44ZM327.04 55.5L327.04 56.97L334.38 56.97L334.38 51.83L332.91 51.83L332.91 55.5ZM327.04 52.56L327.04 54.03L331.44 54.03L331.44 50.36L334.38 50.36L334.38 48.89L327.04 48.89L327.04 50.36L329.97 50.36L329.97 52.56ZM329.97 45.95L328.5 45.95L328.5 43.75L329.97 43.75ZM327.04 42.28L327.04 47.42L334.38 47.42L334.38 45.95L331.44 45.95L331.44 42.28ZM327.04 39.34L327.04 40.81L334.38 40.81L334.38 39.34L331.07 39.34L331.07 37.14L334.38 37.14L334.38 35.67L327.04 35.67L327.04 37.14L329.61 37.14L329.61 39.34Z M369.45 84.14L353.66 84.14L353.66 32L369.45 32ZM357.88 79L357.88 80.47L365.22 80.47L365.22 79L360.29 79L365.22 76.09L365.22 74.59L357.88 74.59L357.88 76.06L362.84 76.06ZM357.88 67.25L357.88 73.13L365.22 73.13L365.22 67.25ZM363.75 71.66L359.35 71.66L359.35 68.72L363.75 68.72ZM357.88 58.44L357.88 64.31L365.22 64.31L365.22 58.44L360.82 58.44L360.82 61.38L362.29 61.38L362.29 59.91L363.75 59.91L363.75 62.84L359.35 62.84L359.35 58.44ZM357.88 55.5L357.88 56.97L365.22 56.97L365.22 51.83L363.75 51.83L363.75 55.5ZM357.88 52.56L357.88 54.03L362.29 54.03L362.29 50.36L365.22 50.36L365.22 48.89L357.88 48.89L357.88 50.36L360.82 50.36L360.82 52.56ZM360.82 45.95L359.35 45.95L359.35 43.75L360.82 43.75ZM357.88 42.28L357.88 47.42L365.22 47.42L365.22 45.95L362.29 45.95L362.29 42.28ZM357.88 39.34L357.88 40.81L365.22 40.81L365.22 39.34L361.92 39.34L361.92 37.14L365.22 37.14L365.22 35.67L357.88 35.67L357.88 37.14L360.45 37.14L360.45 39.34Z" fill="#111827"/>
</svg>